<svg xmlns="http://www.w3.org/2000/svg" viewBox="0 0 500 500">
  <path d="M249.7 83.3c-89.8 0-162.9 73-162.9 162.7v.4c4.1-6.1 9.9-11.3 17.1-15.2 1.7-1 3.6-1.9 5.5-2.7 2-.9 4.1-1.7 6.4-2.4 9.7-65.1 66.1-115.3 133.9-115.3 74.7 0 135.4 60.7 135.4 135.2 0 68.7-51.6 125.6-118.1 134.1-1 3.6-2.4 7.1-4 10.4-.2.4-.5.9-.7 1.3-2.3 4.1-4.9 7.6-7.9 10.7v6.1c87.7-2.4 158.3-74.5 158.3-162.6-.1-89.7-73.2-162.7-163-162.7M317.9 246c0 7.6 6.1 13.7 13.8 13.7 7.6 0 13.7-6.1 13.7-13.7 0-52.7-42.9-95.6-95.7-95.6-7.6 0-13.8 6.1-13.8 13.7s6.1 13.7 13.8 13.7c37.6.1 68.2 30.6 68.2 68.2m-82.4 51.4v15.8c0 5.4-4.4 9.9-9.9 9.9H122.4c-5.5 0-9.9-4.4-9.9-9.9v-24c0-4.1 2.5-7.7 6.1-9.1 1.2-.5 2.4-.7 3.7-.7H207c-7.7-9.4-11.8-21.1-11.8-33.4 0-1.3 0-2.5.1-3.7 0-.3 0-.6.1-.9-6.5-.5-13.5-.7-21.3-.7q-39 0-56.4 7.5c-1.2.5-2.4 1.1-3.5 1.7q-13.8 7.65-13.8 22.5v92.9c0 5.3 1.1 10.7 3.6 15.4 2.8 5.3 6.4 8.9 11 11v19.5c0 1.5.7 3 2 3.9 1.2.9 2.7 1.4 4.2 1.4h3.1c2.1 0 3.7-.6 5.1-1.6 1.1-.9 1.6-2.2 1.6-3.6V397h85.7v14.3c0 1.4.6 2.8 1.7 3.7 1.3 1 2.9 1.6 4.7 1.6h3.4c1.6 0 3-.5 4.2-1.4s2-2.4 2-3.9v-19.5c4.4-2 8-5.5 10.8-10.6.1-.1.2-.3.2-.4 2.5-4.7 3.6-10.1 3.6-15.4v-66.3h-.8c-3.6-.3-7.4-.8-11-1.7m-34 54c2.4-2.5 5.3-3.7 8.6-3.7q5.1 0 8.7 3.6c2.5 2.4 3.7 5.3 3.7 8.6 0 3.4-1.2 6.3-3.7 8.7-2.5 2.5-5.4 3.7-8.7 3.7s-6.2-1.2-8.6-3.6-3.6-5.3-3.6-8.6 1.2-6.3 3.6-8.7m-63.7 20.9c-3.3 0-6.3-1.2-8.7-3.6-2.5-2.4-3.7-5.3-3.7-8.6 0-2.5.7-4.7 2-6.7.5-.7 1-1.4 1.7-2 2.5-2.5 5.4-3.7 8.7-3.7 3.4 0 6.2 1.2 8.6 3.6s3.6 5.3 3.6 8.6q0 5.1-3.6 8.7c-.6.6-1.2 1.1-1.9 1.6-1.9 1.4-4.1 2.1-6.7 2.1m131.1-98c8.7-6.4 14.4-16.7 14.4-28.4 0-19.4-15.7-35.2-35.1-35.2-10.8 0-20.4 4.9-26.9 12.5-2.4 2.9-4.4 6.2-5.8 9.8q-1.95 4.95-2.4 10.5c-.1.8-.1 1.6-.1 2.4 0 19.2 15.3 34.8 34.4 35.2h.7c3.5 0 6.8-.5 10-1.5 4-1.1 7.6-2.9 10.8-5.3" fill="#fff"/>
</svg>
